PathFileType	4	(X/Y/Z)	37_1_17_p1_0-1044_filt_butterworth.trc
DataRate	CameraRate	NumFrames	NumMarkers	Units	OrigDataRate	OrigDataStartFrame	OrigNumFrames
59.0	59.0	6	27	m	59.0	652	1044
Frame#	Time	RHip			RKnee			RAnkle			RBigToe			RSmallToe			RHeel			LHip			LKnee			LAnkle			LBigToe			LSmallToe			LHeel			Neck			Head			Nose			RShoulder			RElbow			RWrist			RThumb			RIndex			RPinky			LShoulder			LElbow			LWrist			LThumb			LIndex			LPinky			
		X1	Y1	Z1	X2	Y2	Z2	X3	Y3	Z3	X4	Y4	Z4	X5	Y5	Z5	X6	Y6	Z6	X7	Y7	Z7	X8	Y8	Z8	X9	Y9	Z9	X10	Y10	Z10	X11	Y11	Z11	X12	Y12	Z12	X13	Y13	Z13	X14	Y14	Z14	X15	Y15	Z15	X16	Y16	Z16	X17	Y17	Z17	X18	Y18	Z18	X19	Y19	Z19	X20	Y20	Z20	X21	Y21	Z21	X22	Y22	Z22	X23	Y23	Z23	X24	Y24	Z24	X25	Y25	Z25	X26	Y26	Z26	X27	Y27	Z27	
652	11.05084745762712	0.3950853945148639	0.6676951480007727	0.9845159532017895	0.40239796132546596	0.22155240688691918	1.0023227558661794	0.402680051483527	-0.21939435826699835	0.9825356221998239	0.3783168783297688	-0.19077301195702545	0.7873968702782407	0.43636012399876656	-0.22755521065899875	0.8504110244139153	0.36926314062909216	-0.2747555379962844	0.9962934624453815	0.20180099141154906	0.6800126355441662	0.9355080567691828	0.1879477293065209	0.23058998980466608	0.9765276180871718	0.15033485916301498	-0.23161240773741237	1.0289374153591306	0.20635806558367642	-0.225209796003579	0.8737860567938378	0.12646954078439152	-0.20814458272688738	0.868340807903501	0.1452708757548561	-0.2828958515615188	1.0598684570941532	0.29106228896573666	1.2356596556404895	0.9537643703034204	0.3175113323775586	1.4846289621741011	0.869307657041372	0.3367736581675706	1.355948861624994	0.842706198375182	0.4612422655346179	1.1356689805871443	1.0283716939101157	0.5288202547192995	0.8633169463114257	1.0388118621621625	0.4858459003541358	0.9679741381913156	0.8387207211463066	0.4510306398857614	1.0901254170267831	0.7180067603546982	0.4610717124343974	1.0878542446685155	0.6885816313715138	0.45735133765905533	1.0147319764613771	0.7005068477332981	0.13183484748510707	1.150610475683635	0.9268433952552196	0.034782301802839054	0.9030821049443776	0.833055441281966	0.15401219619929493	1.0507683637725516	0.7386893557469866	0.2069236941010622	1.1583016255322374	0.7256375981061098	0.20517521585666681	1.1700688254728082	0.6919966375136353	0.20552334731008493	1.12479959640038	0.6543691190344209	
653	11.067796610169491	0.39601536327899933	0.6690584071693471	0.9795468240664682	0.4024784858457924	0.22274937949377577	1.000973092274044	0.40282535930750163	-0.21964589895116451	0.9830720338632533	0.37866278027152767	-0.19078482642770442	0.7873465272094352	0.4366318434590025	-0.22751774070555944	0.8502846360872289	0.37021041108050956	-0.2760949920698466	0.9988913800447099	0.20166665668594042	0.6815422700068051	0.9354246944301741	0.18739083516260177	0.23129990000317766	0.9780903311721877	0.15049271082143142	-0.2309967406945555	1.0282089354008774	0.2062532773762048	-0.22666159377600564	0.8761457142757343	0.12638447241370676	-0.2069659471113805	0.8681850468869516	0.1464211598291463	-0.2823740212405533	1.0590833133206914	0.2893786387582554	1.2367067185548568	0.9514842179766556	0.3151603100369845	1.4834998812715596	0.8704391481650748	0.33428664243296585	1.3554834284827104	0.8423988158900828	0.4602577623432974	1.1359494190130222	1.0231419023638058	0.5285436887339335	0.8682421382995398	1.014725556190247	0.47079041760933066	0.9707088615708246	0.8330850510852239	0.4279289919199246	1.0917953186491225	0.7155342474979396	0.4356702058605738	1.091949606597098	0.6819042338064251	0.4324877282219679	1.0228182161517214	0.6813826884166885	0.13172888036033686	1.152962411976673	0.9435658526177106	0.029138941785345665	0.9059104453566724	0.8349608523153065	0.14181079670668706	1.0669171586125166	0.7474361692837928	0.18790427017162817	1.1755119087469263	0.7379096067926423	0.18581204213834032	1.189081765567766	0.7075721616364468	0.18745309586671466	1.1449857986813774	0.6661620229566353	
654	11.084745762711863	0.3968569291705531	0.6709259660357886	0.974276150737915	0.40254519805137445	0.22394409502879553	0.9995041554261866	0.40312659545445667	-0.21975862144138503	0.983813113008654	0.3786696180230296	-0.19081441491654308	0.7873789039437497	0.4368718425448583	-0.2275276356559801	0.8503435638179048	0.37128859315036905	-0.27735534216776947	1.0015942452688653	0.20150575676989443	0.6833623566143028	0.9352915289262163	0.18667208232208862	0.23214283317554535	0.9795327237650509	0.15069284035211966	-0.23014933826567535	1.0272908845148525	0.20634816068721887	-0.22770252099311314	0.8785998654724985	0.1261885584274999	-0.20661332658701279	0.8691333236696102	0.14741640994542768	-0.28183681244997516	1.0585212056200113	0.28803975911405766	1.2378134500032838	0.949011131421188	0.31163399689245774	1.4823395377895	0.873839087801447	0.33070492057959044	1.3546258252195624	0.8416577045439553	0.4597178533519798	1.1359468797480512	1.018751911896528	0.5273909350947448	0.8734976875699609	0.9901307245389477	0.45504691682923903	0.9745540342614386	0.8221862786891931	0.4032734136034964	1.0927667554799716	0.7165048597708145	0.4093990162142369	1.0973719650517473	0.6736100025814828	0.4070999348126835	1.032283274567579	0.6645392681449152	0.13246689786876414	1.1551552767980326	0.9597031682985653	0.02299991398211211	0.910776795112108	0.8352729845610476	0.13097251559836884	1.0837750100264745	0.758356909397421	0.1710291066423404	1.1911811395383234	0.7556348415450607	0.16945507387269346	1.206934755374103	0.725412233352017	0.1721599402747903	1.165354107243605	0.6820086574786828	
655	11.101694915254235	0.39758793480526644	0.6732786544697378	0.968874053032775	0.40261765022236246	0.22516729400742547	0.9979603465134845	0.4035788565049547	-0.21978284997747938	0.9847051741997013	0.3782891587805568	-0.19087151776871875	0.7875093778530925	0.43690163696392503	-0.22785228614566527	0.8508493860690698	0.3725400252571817	-0.27847988963921677	1.0044210863533842	0.20131582063465578	0.6854631872180593	0.9350330323901193	0.1858187099447073	0.2331517704123135	0.9806671153304386	0.15092896773792674	-0.2291199595375641	1.0262140069589527	0.2062907755491577	-0.22779398343633162	0.8800317520357385	0.12584456000336586	-0.20724596289875208	0.8711361035677505	0.14824982733259232	-0.28126185020288447	1.058115483197966	0.2873993262282795	1.2388065119827356	0.9465398877243325	0.30700511568855565	1.4812176117491511	0.8798330173707651	0.3260685297423898	1.3533398929155198	0.8402870357212175	0.4597985028798649	1.135602900857451	1.015275368022977	0.52595847121341	0.8781179801118515	0.9670273110856002	0.4391210603985553	0.9792711134375899	0.8073769663893956	0.37742511021660385	1.094450491533691	0.7183426892972774	0.38294461315371275	1.104391929075618	0.6651397002247397	0.381952626239348	1.0429329512483059	0.6524467398290186	0.1336889627578809	1.1566575763075737	0.9730255240657095	0.015738809383385524	0.9180436044533391	0.8348283241655712	0.12171298378801633	1.1004327660236553	0.7708447296498697	0.15756485774129897	1.2043793301069228	0.7776479800194304	0.1563229864348866	1.2237494087226026	0.7453707844507396	0.15893752061382704	1.1860134571232175	0.7021486643063266	
656	11.11864406779661	0.3981937685722219	0.6760088341683451	0.9634201231320143	0.4026727603479815	0.2263909976672958	0.9963949646328556	0.4041268286739322	-0.21978028669627309	0.9857205712122585	0.37759052981936125	-0.1909564092131663	0.7877268132590948	0.43672322996361496	-0.22876866754986575	0.8521934069990215	0.3738193624781213	-0.27932613630965886	1.0072420595951475	0.20107444458809773	0.6877656603931057	0.9345640823010549	0.18483337647256054	0.23420086303908905	0.9814752037901815	0.15118962780327413	-0.22795309589582358	1.0249978448840642	0.20583894081741033	-0.2268665425046057	0.8798928222904643	0.1253091673440751	-0.20896445248214102	0.8740305689764284	0.14895609008790306	-0.28057718610213545	1.0577696748843397	0.28742710682885453	1.2394117856905462	0.9443121131522496	0.30174998886002924	1.480257027146773	0.8880859521973734	0.3207682520035733	1.3516035199941427	0.8385518352858575	0.4603347336400282	1.1350331569353866	1.0129176063559369	0.5243378479476487	0.8818037720587834	0.946246261730209	0.4234800686001731	0.9846534555947871	0.7916691091890173	0.35147357975547644	1.0981261014071024	0.7189606922531621	0.3571691361412581	1.1131621624375339	0.65953188374432	0.3576727899773996	1.0543014073963588	0.6470144508565059	0.13481175507300416	1.157051086948334	0.9820358075016594	0.007193379866341983	0.9278560788417377	0.834292667931037	0.11390362028963988	1.116574388268004	0.7841160962302269	0.14786355579682187	1.215434640401266	0.8007480414843816	0.14612267234885878	1.2404378835538803	0.7658293262484615	0.14701676187069918	1.20738572628234	0.7257283595404116	
657	11.135593220338984	0.3986763853211281	0.6789968345236366	0.9579185707749778	0.4026589762352398	0.22759147248108064	0.994869667014528	0.40471413065958456	-0.2197361271583814	0.9868739774602315	0.37656955504056716	-0.1910782990149949	0.7880196599044919	0.4364080376804884	-0.23029579399687625	0.85443952558589	0.3748904304162587	-0.2797672493555135	1.009902582466869	0.20075644446445487	0.6901351239035945	0.9339052455876522	0.18369503392191122	0.23511140419901155	0.9821146239928326	0.15145021936508282	-0.22667951824538501	1.023662685534114	0.2049989528623751	-0.22522783695255133	0.8783373539129105	0.12451492761097079	-0.21180373241316733	0.8777249322702388	0.14957346958830253	-0.27961170783642025	1.0573244128701476	0.28768067261310326	1.239344734204172	0.9428007926679235	0.29647698523826593	1.4795686660533967	0.8976674174763021	0.31531573896470766	1.3495515677862544	0.8367451355443651	0.46098919971523	1.1345127780164852	1.0112361352404302	0.521923472797287	0.8849689437570402	0.927293617494173	0.40770762792216064	0.9907853767158343	0.7774486143749759	0.3273795445094862	1.1040524883811424	0.7185070090699937	0.3334129704622631	1.1232703907392125	0.6599600193454093	0.3344390785696825	1.0655890171742333	0.6489599217737898	0.13525675268636048	1.1561622847356676	0.9867067291484131	-0.0024880408814599657	0.9400658913982926	0.8338767892269852	0.10704126759218668	1.1325101734670167	0.7972947236982912	0.14129923925895865	1.2252523613796746	0.8217499569950453	0.13837396439050745	1.2572616244370427	0.7845353951534098	0.1363631716695979	1.2292742117414646	0.7506152694123582	
